<?xml version="1.0" encoding="UTF-8"?>
<svg xmlns="http://www.w3.org/2000/svg" id="Layer_2" data-name="Layer 2" viewBox="0 0 151.49 158.28">
  <defs>
    <style>
      .cls-1{fill:#fff}
    </style>
  </defs>
  <g id="Layer_1-2" data-name="Layer 1">
    <path d="M145.9 79.14c0-8.05 7.49-17.2 5.13-24.46-2.45-7.53-13.96-10.51-18.52-16.77-4.61-6.33-3.91-18.19-10.24-22.79-6.27-4.56-17.3-.27-24.84-2.71C90.16 10.05 83.8.01 75.74.01s-14.42 10.04-21.69 12.4c-7.53 2.45-18.57-1.85-24.84 2.71-6.33 4.61-5.63 16.46-10.24 22.79C14.42 44.17 2.9 47.15.46 54.68c-2.36 7.27 5.13 16.41 5.13 24.46S-1.9 96.33.46 103.6c2.45 7.53 13.96 10.51 18.52 16.77 4.61 6.33 3.91 18.19 10.24 22.79 6.27 4.56 17.3.27 24.84 2.71 7.27 2.36 13.63 12.4 21.69 12.4s14.42-10.04 21.69-12.4c7.53-2.45 18.57 1.85 24.84-2.71 6.33-4.61 5.63-16.46 10.24-22.79 4.56-6.27 16.08-9.24 18.52-16.77 2.36-7.27-5.13-16.41-5.13-24.46Z" class="cls-1"/>
  </g>
</svg>