<?xml version="1.0" encoding="UTF-8"?>
<svg id="Layer_2" xmlns="http://www.w3.org/2000/svg" version="1.1" viewBox="0 0 792.3 491.7">
  <!-- Generator: Adobe Illustrator 29.0.1, SVG Export Plug-In . SVG Version: 2.1.0 Build 192)  -->
  <defs>
    <style>
      .st0 {
        fill: currentColor;
        stroke: #000;
        stroke-miterlimit: 10;
      }
    </style>
  </defs>
  <path class="st0" d="M701.6,36.6c-49.3-9.2-336.6-10.5-336.6-10.5,0,0-303.3-.7-349.3,10.5l.6,23.4s3,22.6,25.9,24.2c0,0-10.7,116.6,87,218.9,9.1,8.4,51.7,50,72.7,69.9s67.8,61.6,74.8,70.2c0,0,23.8,17.3,80.7,16.2s72-8.1,82.3-15.2c0,0,66-65.5,76.9-73.6,8.5-6.3,51.5-45.1,84.8-83.9,9.3-10.8,20.1-24.3,26.5-33.9,22.6-34.2,46.2-82.7,47.9-168.5,0,0,23.9-3.6,25.3-24.3,1.4-19.9.7-23.5.7-23.5Z"/>
</svg>