<?xml version="1.0" encoding="UTF-8"?>
<svg id="Layer_2" xmlns="http://www.w3.org/2000/svg" version="1.1" viewBox="0 0 643.1 597.7">
  <!-- Generator: Adobe Illustrator 29.0.1, SVG Export Plug-In . SVG Version: 2.1.0 Build 192)  -->
  <defs>
    <style>
      .st0 {
        fill: currentColor;
        stroke: #000;
        stroke-miterlimit: 10;
      }
    </style>
  </defs>
  <path class="st0" d="M288,540.3s72.1-1.9,99.5-15.2c4-1.9,6.4-4.9,6.3-10.8,0,0,.5-49.9,1.4-69.9s3.1-108,19.2-157.7,37.3-101.8,41.5-144.9-2.5-29.9,1.4-37.7,8.1-4.2,9.2-11.3c0,0,.9-4.1-2.7-7.2s-27.7-27.3-182.6-26.6c0,0-175.7,2.3-189.8,35.5,0,0-1.4,5.4,6,10.2s5.1,9.6,5.1,16.8-7.3,29.7,37.8,136.9c41,97.7,39.2,257.7,39.2,257.7,0,0-1,12,10.8,14.7s23.9,9.6,97.7,9.6Z"/>
</svg>